<svg width="297" height="219" viewBox="0 0 297 219" fill="none" xmlns="http://www.w3.org/2000/svg">
<path d="M0.183594 0.910156H277.001C288.047 0.910156 297.001 9.86446 297.001 20.9102V218.645H20.1836C9.1379 218.645 0.183594 209.691 0.183594 198.645V0.910156Z" fill="black"/>
<path d="M249.104 49.0977H30.3008V153.355C30.3008 163.977 38.9652 172.616 49.6372 172.616H268.44V68.3586C268.44 57.7373 259.776 49.0977 249.104 49.0977Z" fill="white"/>
<path d="M249.791 53.3242C257.847 53.3242 264.451 59.9295 264.451 67.9615V168.388H49.2672C41.2104 168.388 34.6328 161.783 34.6328 153.751V53.3242H249.817H249.791Z" fill="black"/>
<path d="M46.1992 68.9961H60.2525L69.3131 124.56L76.0756 68.9961H90.1289L77.6077 142.447H60.8865L46.1992 68.9961Z" fill="white"/>
<path d="M103.721 107.774V110.364C103.721 113.798 104.038 116.308 104.698 117.814C105.358 119.347 106.573 120.113 108.317 120.113C109.928 120.113 111.064 119.532 111.725 118.316C112.385 117.127 112.781 115.146 112.94 112.372H124.668C124.563 117.577 123.11 121.487 120.336 124.05C117.563 126.639 113.521 127.907 108.264 127.907C104.46 127.907 101.396 127.299 99.0449 126.058C96.6939 124.842 94.9505 123.151 93.8146 120.985C92.6787 118.818 91.9391 116.414 91.5956 113.745C91.2522 111.103 91.0938 107.88 91.0938 104.128C91.0938 100.958 91.3579 98.1306 91.8862 95.647C92.4145 93.1634 93.3127 91.0233 94.6335 89.2003C95.9279 87.3772 97.6977 85.9505 99.9431 84.9465C102.188 83.9425 104.962 83.4141 108.317 83.4141C112.121 83.4141 115.159 83.9953 117.457 85.1314C119.755 86.294 121.446 87.8792 122.529 89.9665C123.612 92.0538 124.325 94.4581 124.642 97.1795C124.959 99.9272 125.117 103.415 125.117 107.695H103.8L103.721 107.774ZM112.86 100.429C112.86 97.2587 112.57 94.9337 111.962 93.4805C111.355 92.0273 110.219 91.2875 108.555 91.2875C106.626 91.2875 105.332 92.0009 104.698 93.4805C104.038 94.9337 103.721 97.2587 103.721 100.429H112.86Z" fill="white"/>
<path d="M130.094 84.5511H142.271V89.5447H142.43C143.355 87.6159 144.728 86.1099 146.498 85.0531C148.268 83.9962 150.302 83.4414 152.6 83.4414C156.246 83.4414 158.993 84.3926 160.842 86.2949C162.691 88.1972 163.616 91.1564 163.616 95.1724V126.825H150.962V97.9994C150.962 94.776 149.747 93.1644 147.291 93.1644C145.996 93.1644 144.913 93.6664 144.041 94.6968C143.17 95.7008 142.747 97.2068 142.747 99.1884V126.851H130.094V84.5775V84.5511Z" fill="white"/>
<path d="M170.734 84.5078H183.388V126.782H170.734V84.5078Z" fill="white"/>
<path d="M202.264 107.774V110.364C202.264 113.798 202.607 116.308 203.241 117.814C203.901 119.347 205.116 120.113 206.886 120.113C208.498 120.113 209.634 119.532 210.294 118.316C210.954 117.127 211.351 115.146 211.509 112.372H223.238C223.132 117.577 221.679 121.487 218.906 124.05C216.132 126.639 212.09 127.907 206.833 127.907C203.03 127.907 199.965 127.299 197.614 126.058C195.263 124.842 193.52 123.151 192.384 120.985C191.248 118.818 190.482 116.414 190.139 113.745C189.795 111.103 189.637 107.88 189.637 104.128C189.637 100.958 189.901 98.1306 190.403 95.647C190.931 93.1634 191.829 91.0233 193.15 89.2003C194.444 87.3772 196.214 85.9505 198.46 84.9465C200.705 83.9425 203.479 83.4141 206.807 83.4141C210.611 83.4141 213.649 83.9953 215.947 85.1314C218.245 86.294 219.936 87.8792 221.019 89.9665C222.102 92.0538 222.815 94.4581 223.132 97.1795C223.449 99.9272 223.608 103.415 223.608 107.695H202.29V107.774H202.264ZM211.403 100.429C211.403 97.2587 211.113 94.9337 210.505 93.4805C209.898 92.0273 208.762 91.2875 207.098 91.2875C205.169 91.2875 203.875 92.0009 203.214 93.4805C202.581 94.9337 202.237 97.2587 202.237 100.429H211.403Z" fill="white"/>
<path d="M228.535 84.5559H240.713V90.5007H240.871C241.796 88.4134 243.117 86.7225 244.781 85.4278C246.445 84.1332 248.532 83.4727 251.042 83.4727C251.86 83.4727 252.547 83.5255 253.076 83.6312V95.5207C251.992 95.3093 250.804 95.2036 249.562 95.2036C246.894 95.2036 244.86 95.8113 243.407 97.0267C241.954 98.2685 241.215 100.197 241.215 102.839V126.83H228.562V84.5559H228.535Z" fill="white"/>
<path d="M92.3769 142.289H233.781C237.85 142.289 241.178 139.357 241.178 135.763V132.566H92.3769C88.3089 132.566 84.9805 135.526 84.9805 139.092V142.289H92.3769Z" fill="#009FE3"/>
<path d="M68.6582 156.825H233.758C237.826 156.825 241.154 153.892 241.154 150.299V147.102H68.6582C64.5901 147.102 61.2617 150.034 61.2617 153.628V156.825H68.6582Z" fill="#E6007E"/>
<path d="M186.992 68.8923C186.992 74.3614 182.554 78.8002 177.086 78.8002C171.618 78.8002 167.18 74.3614 167.18 68.8923C167.18 63.4231 171.591 58.9844 177.086 58.9844C182.58 58.9844 186.992 63.4231 186.992 68.8923Z" fill="#E6007E"/>
<path d="M183.441 66.4493C183.441 67.8232 182.331 68.9065 180.984 68.9065C179.637 68.9065 178.527 67.7968 178.527 66.4493C178.527 65.1019 179.637 63.9922 180.984 63.9922C182.331 63.9922 183.441 65.1019 183.441 66.4493Z" fill="white"/>
<path d="M249.817 48.5039H29.8516V153.713C29.8516 164.44 38.5688 173.132 49.2937 173.132H269.285V67.9234C269.285 57.1964 260.568 48.5039 249.843 48.5039H249.817ZM267.304 171.177H49.2937C44.486 171.177 40.1009 169.222 36.931 166.051C33.7611 162.881 31.8063 158.521 31.8063 153.686V50.4591H249.843C254.677 50.4591 259.036 52.4142 262.206 55.5848C265.376 58.7553 267.331 63.1148 267.331 67.9498V171.203H267.304V171.177Z" fill="black"/>
</svg>
